<?xml version="1.0" encoding="UTF-8"?>
<svg id="Capa_1" data-name="Capa 1" xmlns="http://www.w3.org/2000/svg" viewBox="0 0 425.2 425.2">
  <defs>
    <style>
      .cls-1 {
        fill: #fff;
      }
    </style>
  </defs>
  <path id="esp" class="cls-1" d="m258.43,111.38c-9.62-3.26-17.41-1.02-23.49,7.27-1.46,1.8-14.04,22.34-29.99,48.83-.03.06-3.14,5.72-10.96,8.05-.49.14-.96.27-1.4.37-5.23,1.29-7.46.54-8.66.14-1.71-.54-21.36-7.85-23.57-8.67-.06-.03-5.82-2.9-7.47-8.31-.65-2.07-1.71-7.11-2.14-9.2-.7-5.56-5.39-10.15-12.58-8.38-3.4.93-4.97,3.68-6.17,6.52l-13.37,32.2c-.83,1.99-1.57,6.39.93,10.19,2.96,4.49,5.76,5.33,10.21,5.39,2.81.04,71.02.24,103.79.34,9.37.03,15.78.05,16.84.05.79.01,2.66.32,2.95,2.79.32,2.66-3.57,3.88-4.02,4.01-.96.23-52.27,15.34-53.27,15.56-1.55.42-6.76,2.23-9.52,7.84-2.56,5.26-9.66,18.34-12.9,24.44-2.88,7.61-1.62,17.24,4.05,24.09l30.46,36.11c1.78,2.06,6.17,5.21,11.3,3.95,1.02-.25,1.99-.66,2.94-1.21,5.62-3.28,15.08-9.69,16.12-10.51,2.59-2.97,6.05-10.17.61-16.11-4.33-4.74-21.88-21.55-27.23-26.65-2.14-2.64-7.24-10.75-5.22-16.43,2.95-8.23,5.91-10.48,10.36-11.76.54-.15,4.15-1.17,8.87-2.49,14.04-3.94,26.66-7.48,26.76-7.52.81-.17,8.12-1.44,13.57,4.98l23.98,28.36c1.35,1.6,6.1,4.88,9.93,3.56,1.28-.36,2.44-1.06,3.44-2.07,4.66-4.68,4.14-7.67,2.89-12.15l-31.94-117.91c-.03-.11-3.65-11.51-16.11-15.69Zm41.5,135.49q.93,3.37-1.14,5.44h0c-.18.2-.32.26-.63.34-.86,0-2.25-.99-2.9-1.67-.18-.23-23.57-27.89-23.8-28.17-8.4-9.87-19.82-7.27-20.31-7.15-.72.2-35.54,9.98-35.9,10.08-7.38,2.11-11.57,6.61-14.95,16.08-3.91,10.87,6.56,23.32,6.69,23.46.21.19,22.41,21.37,27.12,26.53,2.29,2.48.45,5.46-.48,6.67-.91.45-10.59,7.47-15.69,9.81-2.33.57-4.27-1.38-4.63-1.77l-30.41-36.07c-3.89-4.81-4.96-11.52-2.97-17.03,2.75-5.08,9.83-18.18,12.72-24.07,1.28-2.65,3.65-3.8,5.42-4.29l53.22-15.56c3.41-.97,9.65-4.61,8.84-11.44-.85-6.93-6.68-8.76-9.65-8.75-24.82-.05-119.25-.36-120.57-.37-2.77-.04-3.21-.18-4.66-2.35-.99-1.52-.5-3.31-.33-3.84l13.32-32.12c.8-1.87,1.1-2.44,1.82-2.62.43-.11,1.03-.06,1.98.05,1,.12,1.7,1.2,2,3.1.06.29,1.45,7.16,2.33,9.99,2.63,8.47,11.26,12.52,11.36,12.56.9.34,22.04,8.2,24.04,8.85,2.62.85,6.15,1.52,12.42-.02.74-.18,1.45-.38,2.2-.6,9.55-2.85,13.92-10.14,14.39-10.96,8.5-14.18,26.92-44.65,29.61-48.3,1.59-2.17,3.7-4.52,7.33-5.54,2.41-.59,5.26-.35,8.48.72,8.94,3,11.74,11.03,11.85,11.36.96,3.49,23.76,87.8,31.87,117.66Z"/>
</svg>